<svg xmlns="http://www.w3.org/2000/svg" xmlns:xlink="http://www.w3.org/1999/xlink" width="800" height="600" version="1.1" viewBox="0 0 800 600" xml:space="preserve"><desc>Created with Fabric.js 3.6.3</desc><g transform="matrix(1.14 0 0 1.14 121.71 248.32)"><line style="stroke:#000;stroke-width:3;stroke-dasharray:none;stroke-linecap:butt;stroke-dashoffset:0;stroke-linejoin:miter;stroke-miterlimit:4;fill:#000;fill-rule:nonzero;opacity:1" x1="0" x2="0" y1="-202" y2="202"/></g><g transform="matrix(1 0 0 1 406.5 481)"><line style="stroke:#000;stroke-width:3;stroke-dasharray:none;stroke-linecap:butt;stroke-dashoffset:0;stroke-linejoin:miter;stroke-miterlimit:4;fill:#000;fill-rule:nonzero;opacity:1" x1="-285" x2="285" y1="-.5" y2=".5"/></g><g transform="matrix(1 0 0 1 122 391.5)"><line style="stroke:#000;stroke-width:2;stroke-dasharray:none;stroke-linecap:butt;stroke-dashoffset:0;stroke-linejoin:miter;stroke-miterlimit:4;fill:#000;fill-rule:nonzero;opacity:1" x1="-7" x2="7" y1="-.5" y2=".5"/></g><g transform="matrix(1 0 0 1 120 300)"><line style="stroke:#000;stroke-width:2;stroke-dasharray:none;stroke-linecap:butt;stroke-dashoffset:0;stroke-linejoin:miter;stroke-miterlimit:4;fill:#000;fill-rule:nonzero;opacity:1" x1="6" x2="-6" y1="0" y2="0"/></g><g transform="matrix(1 0 0 1 120 211)"><line style="stroke:#000;stroke-width:2;stroke-dasharray:none;stroke-linecap:butt;stroke-dashoffset:0;stroke-linejoin:miter;stroke-miterlimit:4;fill:#000;fill-rule:nonzero;opacity:1" x1="7" x2="-7" y1="0" y2="0"/></g><g transform="matrix(1 0 0 1 119.5 122)"><line style="stroke:#000;stroke-width:2;stroke-dasharray:none;stroke-linecap:butt;stroke-dashoffset:0;stroke-linejoin:miter;stroke-miterlimit:4;fill:#000;fill-rule:nonzero;opacity:1" x1="8.5" x2="-8.5" y1="0" y2="0"/></g><g transform="matrix(1 0 0 1 122 31.5)"><line style="stroke:#000;stroke-width:2;stroke-dasharray:none;stroke-linecap:butt;stroke-dashoffset:0;stroke-linejoin:miter;stroke-miterlimit:4;fill:#000;fill-rule:nonzero;opacity:1" x1="9" x2="-9" y1="-.5" y2=".5"/></g><g><text font-family="'Open Sans', sans-serif" font-size="18" font-style="normal" font-weight="normal" transform="matrix(1 0 0 1 383.5 537.67)" xml:space="preserve" style="stroke:none;stroke-width:1;stroke-dasharray:none;stroke-linecap:butt;stroke-dashoffset:0;stroke-linejoin:miter;stroke-miterlimit:4;fill:#000;fill-rule:nonzero;opacity:1;white-space:pre"><tspan x="-79" y="5.65">harmonic number</tspan></text></g><g><text font-family="'Open Sans', sans-serif" font-size="18" font-style="normal" font-weight="normal" transform="matrix(0 -1 1 0 77.51 261.67)" xml:space="preserve" style="stroke:none;stroke-width:1;stroke-dasharray:none;stroke-linecap:butt;stroke-dashoffset:0;stroke-linejoin:miter;stroke-miterlimit:4;fill:#000;fill-rule:nonzero;opacity:1;white-space:pre"><tspan x="-37.01" y="5.65">volume</tspan></text></g><g><text font-family="'Open Sans', sans-serif" font-size="18" font-style="normal" font-weight="normal" transform="matrix(1 0 0 1 187.53 509.67)" xml:space="preserve" style="stroke:none;stroke-width:1;stroke-dasharray:none;stroke-linecap:butt;stroke-dashoffset:0;stroke-linejoin:miter;stroke-miterlimit:4;fill:#000;fill-rule:nonzero;opacity:1;white-space:pre"><tspan x="-10.03" y="5.65">1</tspan></text></g><g><text font-family="'Open Sans', sans-serif" font-size="18" font-style="normal" font-weight="normal" transform="matrix(1 0 0 1 247.53 509.67)" xml:space="preserve" style="stroke:none;stroke-width:1;stroke-dasharray:none;stroke-linecap:butt;stroke-dashoffset:0;stroke-linejoin:miter;stroke-miterlimit:4;fill:#000;fill-rule:nonzero;opacity:1;white-space:pre"><tspan x="-10.03" y="5.65">2</tspan></text></g><g><text font-family="'Open Sans', sans-serif" font-size="18" font-style="normal" font-weight="normal" transform="matrix(1 0 0 1 304.52 508.67)" xml:space="preserve" style="stroke:none;stroke-width:1;stroke-dasharray:none;stroke-linecap:butt;stroke-dashoffset:0;stroke-linejoin:miter;stroke-miterlimit:4;fill:#000;fill-rule:nonzero;opacity:1;white-space:pre"><tspan x="-10.03" y="5.65">3</tspan></text></g><g><text font-family="'Open Sans', sans-serif" font-size="18" font-style="normal" font-weight="normal" transform="matrix(1 0 0 1 365.52 508.67)" xml:space="preserve" style="stroke:none;stroke-width:1;stroke-dasharray:none;stroke-linecap:butt;stroke-dashoffset:0;stroke-linejoin:miter;stroke-miterlimit:4;fill:#000;fill-rule:nonzero;opacity:1;white-space:pre"><tspan x="-10.03" y="5.65">4</tspan></text></g><g><text font-family="'Open Sans', sans-serif" font-size="18" font-style="normal" font-weight="normal" transform="matrix(1 0 0 1 425.52 508.67)" xml:space="preserve" style="stroke:none;stroke-width:1;stroke-dasharray:none;stroke-linecap:butt;stroke-dashoffset:0;stroke-linejoin:miter;stroke-miterlimit:4;fill:#000;fill-rule:nonzero;opacity:1;white-space:pre"><tspan x="-10.03" y="5.65">5</tspan></text></g><g><text font-family="'Open Sans', sans-serif" font-size="18" font-style="normal" font-weight="normal" transform="matrix(1 0 0 1 486.52 507.67)" xml:space="preserve" style="stroke:none;stroke-width:1;stroke-dasharray:none;stroke-linecap:butt;stroke-dashoffset:0;stroke-linejoin:miter;stroke-miterlimit:4;fill:#000;fill-rule:nonzero;opacity:1;white-space:pre"><tspan x="-10.03" y="5.65">6</tspan></text></g><g><text font-family="'Open Sans', sans-serif" font-size="18" font-style="normal" font-weight="normal" transform="matrix(1 0 0 1 544.52 507.67)" xml:space="preserve" style="stroke:none;stroke-width:1;stroke-dasharray:none;stroke-linecap:butt;stroke-dashoffset:0;stroke-linejoin:miter;stroke-miterlimit:4;fill:#000;fill-rule:nonzero;opacity:1;white-space:pre"><tspan x="-10.03" y="5.65">7</tspan></text></g><g transform="matrix(2.49 0 0 2.49 183.25 254.25)"><line style="stroke:#000;stroke-width:5;stroke-dasharray:none;stroke-linecap:butt;stroke-dashoffset:0;stroke-linejoin:miter;stroke-miterlimit:4;fill:#000;fill-rule:nonzero;opacity:1" x1=".5" x2="-.5" y1="90" y2="-90" vector-effect="non-scaling-stroke"/></g><g transform="matrix(1 0 0 1 244 400)"><line style="stroke:#000;stroke-width:5;stroke-dasharray:none;stroke-linecap:butt;stroke-dashoffset:0;stroke-linejoin:miter;stroke-miterlimit:4;fill:#000;fill-rule:nonzero;opacity:1" x1=".5" x2="-.5" y1="81.5" y2="-81.5" vector-effect="non-scaling-stroke"/></g><g transform="matrix(0.26 0 0 0.26 302.37 422.63)"><line style="stroke:#000;stroke-width:5;stroke-dasharray:none;stroke-linecap:butt;stroke-dashoffset:0;stroke-linejoin:miter;stroke-miterlimit:4;fill:#000;fill-rule:nonzero;opacity:1" x1=".5" x2="-.5" y1="225.5" y2="-225.5" vector-effect="non-scaling-stroke"/></g><g transform="matrix(0.19 0 0 0.19 363.5 476.3)"><line style="stroke:#000;stroke-width:5;stroke-dasharray:none;stroke-linecap:butt;stroke-dashoffset:0;stroke-linejoin:miter;stroke-miterlimit:4;fill:#000;fill-rule:nonzero;opacity:1" x1="0" x2="0" y1="22" y2="-22" vector-effect="non-scaling-stroke"/></g><g transform="matrix(0.58 0 0 0.58 423.5 463.84)"><line style="stroke:#000;stroke-width:5;stroke-dasharray:none;stroke-linecap:butt;stroke-dashoffset:0;stroke-linejoin:miter;stroke-miterlimit:4;fill:#000;fill-rule:nonzero;opacity:1" x1="0" x2="0" y1="28.623" y2="-28.623" vector-effect="non-scaling-stroke"/></g><g transform="matrix(1.24 0 0 1.24 482.5 441.06)"><line style="stroke:#000;stroke-width:5;stroke-dasharray:none;stroke-linecap:butt;stroke-dashoffset:0;stroke-linejoin:miter;stroke-miterlimit:4;fill:#000;fill-rule:nonzero;opacity:1" x1="0" x2="0" y1="34.34" y2="-34.34" vector-effect="non-scaling-stroke"/></g><g transform="matrix(0.24 0 0 0.24 544.5 467.6)"><line style="stroke:#000;stroke-width:5;stroke-dasharray:none;stroke-linecap:butt;stroke-dashoffset:0;stroke-linejoin:miter;stroke-miterlimit:4;fill:#000;fill-rule:nonzero;opacity:1" x1="0" x2="0" y1="57.002" y2="-57.002" vector-effect="non-scaling-stroke"/></g></svg>