<?xml version="1.0" encoding="UTF-8" standalone="no" ?>
<!DOCTYPE svg PUBLIC "-//W3C//DTD SVG 1.1//EN" "http://www.w3.org/Graphics/SVG/1.1/DTD/svg11.dtd">
<svg xmlns="http://www.w3.org/2000/svg" xmlns:xlink="http://www.w3.org/1999/xlink" version="1.1" width="16" height="466" viewBox="0 0 16 466" xml:space="preserve">
<desc>Created with Fabric.js 3.6.3</desc>
<defs>
</defs>
<g transform="matrix(1 0 0 1 8.45 18.02)" id="path3250"  >
<path style="stroke: none; stroke-width: 4.17047882; stroke-dasharray: none; stroke-linecap: round; stroke-dashoffset: 0; stroke-linejoin: miter; stroke-miterlimit: 4; fill: rgb(130,0,86); fill-rule: evenodd; opacity: 1;"  transform=" translate(-80.58, -145.52)" d="m 88.491169 145.51702 a 7.910769 17.931075 0 1 1 -15.821538 0 a 7.910769 17.931075 0 1 1 15.821538 0 z" stroke-linecap="round" />
</g>
<g transform="matrix(1 0 0 1 8.5 83.23)" id="path3242"  >
<path style="stroke: none; stroke-width: 4; stroke-dasharray: none; stroke-linecap: round; stroke-dashoffset: 0; stroke-linejoin: miter; stroke-miterlimit: 4; fill: rgb(52,117,105); fill-rule: evenodd; opacity: 1;"  transform=" translate(-80.63, -210.73)" d="m 76.723438 160.2325 l -4.59375 101 h 17 l -4.59375 -101 z" stroke-linecap="round" />
</g>
<g transform="matrix(1 0 0 1 8.5 300.23)" id="rect2266"  >
<linearGradient id="SVGID_linearGradient3258_5" gradientUnits="userSpaceOnUse" gradientTransform="matrix(1 0 0 1 72.13 126.23)"  x1="8.5" y1="346.70181" x2="8.5" y2="451.94955">
<stop offset="0%" style="stop-color:rgb(127,49,154);stop-opacity: 1"/>
<stop offset="100%" style="stop-color:rgb(37,55,188);stop-opacity: 1"/>
</linearGradient>
<path style="stroke: none; stroke-width: 4; stroke-dasharray: none; stroke-linecap: round; stroke-dashoffset: 0; stroke-linejoin: miter; stroke-miterlimit: 4; fill: url(#SVGID_linearGradient3258_5); fill-rule: evenodd; opacity: 1;"  transform=" translate(-80.63, -427.73)" d="m 72.129688 261.2325 v 325.40625 c 0 4.20342 3.390336 7.59375 7.593746 7.59375 h 1.8125 c 4.20342 0 7.59375 -3.39033 7.59375 -7.59375 V 261.2325 Z" stroke-linecap="round" />
</g>
</svg>