<?xml version="1.0" encoding="UTF-8" standalone="no"?>
<!DOCTYPE svg PUBLIC "-//W3C//DTD SVG 1.1//EN" "http://www.w3.org/Graphics/SVG/1.1/DTD/svg11.dtd">
<svg width="19.788cm" height="5.828cm" version="1.1" xmlns="http://www.w3.org/2000/svg" viewBox="-9899 0 19798 5828" xmlns:xlink="http://www.w3.org/1999/xlink" style="shape-rendering:geometricPrecision; text-rendering:geometricPrecision">
	<desc>
		1st-16th harmonics as played on brass instruments
		The arrows and the number below indicate the difference from the equal 
		temperament in cent.
		Created by baba66, http://de.wikipedia.org, 2006-04-01
		License: cc-by-sa/2.0/de and GFDL
	</desc>
	<defs>
		<style type="text/css"><![CDATA[
			.white {
				fill: #FFFFFF;
			}
			#redline {
				stroke: #CC0000;
				stroke-width:70;
				fill:none;
				stroke-opacity: 0.5;
			}
    	.black {
				fill:#000000;
			}
			.thinline {
				stroke:#000000;
				stroke-width:25;
				shape-rendering: crispEdges;
			}	
			.thickline {
				stroke:#000000;
				stroke-width:110;
				shape-rendering: crispEdges;
			}	
			.graybackground {
				fill: #E4E4E4;
				stroke: #CCCCCC;
				stroke-width: 25;
				shape-rendering: crispEdges;
			}	
			text {
				font-family: Arial, sans-serif;
				fill: #000000;
			}	
   ]]>
	</style>

</defs>
	<rect id="background" class="white" x="-9899" y="0" width="19798" height="5828"/>
	<path id="trebleclef" class="black" d="M-8278 2910c0,76 -58,145 -137,145 -46,0 -76,-13 -91,-33 68,-20 99,-53     94,-104 0,-44 -48,-84 -92,-79 -61,0 -93,63 -89,117 5,86 109,124 183,119    88,-3 155,-71 155,-157 0,-71 -17,-149 -28,-219 98,-39 172,-135 160,-243    -8,-123 -85,-199 -206,-199 -10,0 -17,0 -25,0l-28 -162c109,-109 180,-201    180,-366 0,-44 -41,-228 -99,-228 -60,6 -121,140 -129,193 -20,91 -10,188     5,279 -132,99 -291,238 -275,422 14,178 142,315 326,315 25,0 48,0 68,-5     11,66 28,137 28,205zm41 -1204c6,96 -99,196 -168,249 -10,-78 -2,-169     31,-241 22,-53 50,-81 86,-81 30,0 48,22 51,73l0 0zm45 798c8,86 -25,142    -96,167l-48 -297c91,-2 139,41 144,130l0 0zm-116 173c-23,5 -46,7 -69,7     -124,0 -259,-90 -264,-223 -13,-131 132,-290 239,-351l25 153c-76,15    -156,105 -147,185 4,70 46,128 109,157 3,-5 8,-7 10,-10 -38,-16 -64,-64    -68,-104 0,-66 47,-114 114,-114 18,99 33,201 51,300l0 0z"/>
	<path id="bassclef" class="black" d="M-8225 3362c0,-125 -95,-236 -226,-236 -118,7 -210,74 -210,203 0,60     49,102 106,102 50,0 79,-36 79,-84 0,-39 -24,-86 -69,-86 -11,0 -71,12    -71,7 -5,-67 84,-116 143,-116 101,0 127,112 127,193 4,253 -133,398     -351,477l5 13c239,-40 467,-218 467,-473zm82 -81c26,0 46,-21 45,-48 0,-30     -20,-43 -48,-43 -26,0 -46,19 -46,45 0,26 24,46 49,46zm0 213c26,0 45,-20     45,-48 0,-26 -20,-43 -45,-43 -25,0 -49,20 -49,46 6,26 20,45 49,45z"/>

	<path id="measure" class="thinline" d="M-8908 1856l0 2116"/>
	<use xlink:href="#measure" x="17602"/>
	<path id="end" class="thickline" d="M8862 1856l0 2116"/>

	<rect id="graybackground" class="graybackground" x="-7118" y="1109" width="1049" height="3611"/>
	<use xlink:href="#graybackground" x="2098"/>
	<use xlink:href="#graybackground" x="4196"/>
	<use xlink:href="#graybackground" x="6294"/>
	<use xlink:href="#graybackground" x="8392"/>
	<use xlink:href="#graybackground" x="10490"/>
	<use xlink:href="#graybackground" x="12588"/>
	<use xlink:href="#graybackground" x="14686"/>

	<path id="line" class="thinline" d="M-8913 1856l17826 0"/>
	<use xlink:href="#line" y="211.5"/>
	<use xlink:href="#line" y="423"/>
	<use xlink:href="#line" y="634.5"/>
	<use xlink:href="#line" y="846"/>


	<use xlink:href="#line" y="1270"/>
	<use xlink:href="#line" y="1481.5"/>
	<use xlink:href="#line" y="1693"/>
	<use xlink:href="#line" y="1904.5"/>
	<use xlink:href="#line" y="2116"/>

	<path id="redline" d="M-7625 4399c2354,-2147 8464,-2446 15764,-2970"/>
	
	<path id="cross" class="black" d="M-1433 2433l-83 28 0 -127 83 -28 0 127zm-144 -79l38 -13 0 127 -38    10 0 89 38 -12 0 116 23 0 0 -124 83 -28 0 132 26 0 0 -140 33 -10 0 -86   -33 10 0 -127 33 -10 0 -89 -33 13 0 -117 -26 0 0 124 -83 26 0 -130 -23    0 0 140 -38 10 0 89z"/>
	<use xlink:href="#cross" x="4191" y="-529"/>
	<use xlink:href="#cross" x="6292" y="-635"/>
	<use xlink:href="#cross" x="7341" y="-742"/>
	
	<g id="fillednotegroup">
		<path id="fillednote" class="black" d="M-7630 4508c61,0 172,-28 165,-109 -6,-90 -116,-115 -188,-115 -57,0      -175,32 -168,110 12,89 117,114 191,114z"/>
		<path id="notefiller" class="white" d="M-7656 4307c49,0 77,38 87,112 6,37 -24,71 -61,71 -46,0 -74,-38      -84,-112 -5,-35 21,-71 58,-71z"/>
	</g>
	<use xlink:href="#fillednotegroup" x="15746" y="-2961"/>
	
	<path id="hollownote" class="black" d="M-6581 3769c61,0 172,-32 165,-112 -13,-89 -115,-114 -190,-114 -62,0    -172,31 -166,111 7,92 119,111 191,115z    m-25 -203c45,0 73,38 86,111 5,37 -27,71 -64,71 -45,0 -71,-38 -83,-111     -6,-36 26,-71 61,-71z"/>	
	<use xlink:href="#hollownote" x="1049" y="-423"/>
	<use xlink:href="#hollownote" x="2098" y="-740"/>
	<use xlink:href="#hollownote" x="3147" y="-952"/>
	<use xlink:href="#hollownote" x="4196" y="-1163"/>
	<use xlink:href="#hollownote" x="5445" y="-1269"/>
	<use xlink:href="#hollownote" x="6294" y="-1480"/>
	<use xlink:href="#hollownote" x="7343" y="-1586"/>
	<use xlink:href="#hollownote" x="8392" y="-1692"/>
	<use xlink:href="#hollownote" x="9641" y="-1798"/>
	<use xlink:href="#hollownote" x="10490" y="-1904"/>
	<use xlink:href="#hollownote" x="11739" y="-1904"/>
	<use xlink:href="#hollownote" x="12788" y="-2009"/>
	<use xlink:href="#hollownote" x="13637" y="-2115"/>
	
	<path id="helpline" class="thinline" d="M-7871 4396l457 0"/>
	<use xlink:href="#helpline" y="-211.5"/>
	<use xlink:href="#helpline" x="3149" y="-1480.5"/>
	<use xlink:href="#helpline" x="13855" y="-2749.5"/>
	<use xlink:href="#helpline" x="14693" y="-2749.5"/>
	<use xlink:href="#helpline" x="15742" y="-2749.5"/>
	<use xlink:href="#helpline" x="15742" y="-2749.5"/>
	<use xlink:href="#helpline" x="15742" y="-2961"/>

	<text x="-7643" y="892" font-size="423" text-anchor="middle">1</text>
	<text x="-6594" y="892" font-size="423" text-anchor="middle">2</text>

	<text x="-5545" y="892" font-size="423" text-anchor="middle">3</text>
	<text x="-5545" y="5236" font-size="423" text-anchor="middle">2c</text>

	<text x="-4496" y="892" font-size="423" text-anchor="middle">4</text>
	
	<text x="-3447" y="892" font-size="423" text-anchor="middle">5</text>
	<text x="-3447" y="5236" font-size="423" text-anchor="middle">14c</text>

	<text x="-2398" y="892" font-size="423" text-anchor="middle">6</text>
	<text x="-2398" y="5236" font-size="423" text-anchor="middle">2c</text>

	<text x="-1349" y="892" font-size="423" text-anchor="middle">7</text>
	<text x="-1349" y="5236" font-size="423" text-anchor="middle">31c</text>
	
	<text x="-300" y="892" font-size="423" text-anchor="middle">8</text>

	<text x="749" y="892" font-size="423" text-anchor="middle">9</text>
	<text x="749" y="5236" font-size="423" text-anchor="middle">4c</text>

	<text x="1798" y="892" font-size="423" text-anchor="middle">10</text>
	<text x="1798" y="5236" font-size="423" text-anchor="middle">14c</text>

	<text x="2847" y="892" font-size="423" text-anchor="middle">11</text>
	<text x="2847" y="5236" font-size="423" text-anchor="middle">49c</text>
	
	<text x="3896" y="892" font-size="423" text-anchor="middle">12</text>
	<text x="3896" y="5236" font-size="423" text-anchor="middle">2c</text>
	
	<text x="4945" y="892" font-size="423" text-anchor="middle">13</text>
	<text x="4945" y="5236" font-size="423" text-anchor="middle">41c</text>
	
	<text x="5994" y="892" font-size="423" text-anchor="middle">14</text>
	<text x="5994" y="5236" font-size="423" text-anchor="middle">31c</text>

	<text x="7043" y="892" font-size="423" text-anchor="middle">15</text>
	<text x="7043" y="5236" font-size="423" text-anchor="middle">12c</text>

	<text x="8092" y="892" font-size="423" text-anchor="middle">16</text>

	<path id="arrowup" class="black" d="M-5507 4418l0 148 -75 0 0 -148 -81 0 59 -119 59 -119 60 119 59 119 -81 0z"/>
	<use xlink:href="#arrowup" x="3147"/>
	<use xlink:href="#arrowup" x="6294"/>
	<use xlink:href="#arrowup" x="9441"/>
	<use xlink:href="#arrowup" x="10490"/>

	<path id="arrowdown" class="black" d="M-3486 4329l0 -149 75 0 0 149 81 0 -59 118 -60 119 -59 -119 -59 -118 81 0z"/>
	<use xlink:href="#arrowdown" x="2098"/>
	<use xlink:href="#arrowdown" x="5245"/>
	<use xlink:href="#arrowdown" x="6294"/>
	<use xlink:href="#arrowdown" x="9441"/>
	<use xlink:href="#arrowdown" x="10490"/>
</svg>