<?xml version="1.0" encoding="UTF-8" standalone="no" ?>
<!DOCTYPE svg PUBLIC "-//W3C//DTD SVG 1.1//EN" "http://www.w3.org/Graphics/SVG/1.1/DTD/svg11.dtd">
<svg xmlns="http://www.w3.org/2000/svg" xmlns:xlink="http://www.w3.org/1999/xlink" version="1.1" width="800" height="550" viewBox="0 0 800 550" xml:space="preserve">
<desc>Created with Fabric.js 3.6.3</desc>
<defs>
</defs>
<g transform="matrix(0.87 0 0 0.87 118.18 281.68)"  >
<line style="stroke: rgb(0,0,0); stroke-width: 2; stroke-dasharray: none; stroke-linecap: butt; stroke-dashoffset: 0; stroke-linejoin: miter; stroke-miterlimit: 4; fill: rgb(0,0,0); fill-rule: nonzero; opacity: 1;"  x1="-0.5" y1="-250.5" x2="0.5" y2="250.5" />
</g>
<g transform="matrix(0.87 0 0 0.87 429.63 497.96)"  >
<line style="stroke: rgb(0,0,0); stroke-width: 2; stroke-dasharray: none; stroke-linecap: butt; stroke-dashoffset: 0; stroke-linejoin: miter; stroke-miterlimit: 4; fill: rgb(0,0,0); fill-rule: nonzero; opacity: 1;"  x1="-358.5" y1="0" x2="358.5" y2="0" />
</g>
<g transform="matrix(1 0 0 1 410.5 526.67)" style=""  >
		<text xml:space="preserve" font-family="'Open Sans', sans-serif" font-size="18" font-style="normal" font-weight="normal" style="stroke: none; stroke-width: 1; stroke-dasharray: none; stroke-linecap: butt; stroke-dashoffset: 0; stroke-linejoin: miter; stroke-miterlimit: 4; fill: rgb(0,0,0); fill-rule: nonzero; opacity: 1; white-space: pre;" ><tspan x="-89" y="5.65" >frequency (in Hertz)</tspan></text>
</g>
<g transform="matrix(0 -1 1 0 86.01 251.67)" style=""  >
		<text xml:space="preserve" font-family="'Open Sans', sans-serif" font-size="18" font-style="normal" font-weight="normal" style="stroke: none; stroke-width: 1; stroke-dasharray: none; stroke-linecap: butt; stroke-dashoffset: 0; stroke-linejoin: miter; stroke-miterlimit: 4; fill: rgb(0,0,0); fill-rule: nonzero; opacity: 1; white-space: pre;" ><tspan x="-67.5" y="5.65" >pitch (in cents)</tspan></text>
</g>
<g transform="matrix(1 0 0 1 424 279)"  >
<path style="stroke: rgb(0,0,0); stroke-width: 2; stroke-dasharray: none; stroke-linecap: butt; stroke-dashoffset: 0; stroke-linejoin: miter; stroke-miterlimit: 4; fill: none; fill-rule: nonzero; opacity: 1;"  transform=" translate(-424, -282)" d="M 119 499 Q 226 90 729 65" stroke-linecap="round" />
</g>
<g transform="matrix(1 0 0 1 153.5 454)"  >
<line style="stroke: rgb(0,0,0); stroke-width: 3; stroke-dasharray: 1 10; stroke-linecap: round; stroke-dashoffset: 0; stroke-linejoin: miter; stroke-miterlimit: 4; fill: rgb(0,0,0); fill-rule: nonzero; opacity: 1;"  x1="0" y1="-45.5" x2="0" y2="45.5" />
</g>
<g transform="matrix(1 0 0 1 136.5 409.5)"  >
<line style="stroke: rgb(0,0,0); stroke-width: 3; stroke-dasharray: 1 10; stroke-linecap: round; stroke-dashoffset: 0; stroke-linejoin: miter; stroke-miterlimit: 4; fill: rgb(0,0,0); fill-rule: nonzero; opacity: 1;"  x1="-18" y1="0" x2="18" y2="0" />
</g>
<g transform="matrix(1 0 0 1 225.5 392.5)"  >
<line style="stroke: rgb(0,0,0); stroke-width: 3; stroke-dasharray: 1 10; stroke-linecap: round; stroke-dashoffset: 0; stroke-linejoin: miter; stroke-miterlimit: 4; fill: rgb(0,0,0); fill-rule: nonzero; opacity: 1;"  x1="-1" y1="-108" x2="1" y2="108" />
</g>
<g transform="matrix(1 0 0 1 173 286.5)"  >
<line style="stroke: rgb(0,0,0); stroke-width: 3; stroke-dasharray: 1 10; stroke-linecap: round; stroke-dashoffset: 0; stroke-linejoin: miter; stroke-miterlimit: 4; fill: rgb(0,0,0); fill-rule: nonzero; opacity: 1;"  x1="-52.5" y1="1" x2="52.5" y2="-1" />
</g>
<g transform="matrix(1 0 0 1 302.5 352)"  >
<line style="stroke: rgb(0,0,0); stroke-width: 3; stroke-dasharray: 1 10; stroke-linecap: round; stroke-dashoffset: 0; stroke-linejoin: miter; stroke-miterlimit: 4; fill: rgb(0,0,0); fill-rule: nonzero; opacity: 1;"  x1="0" y1="148.5" x2="0" y2="-148.5" />
</g>
<g transform="matrix(1 0 0 1 211.5 204.5)"  >
<line style="stroke: rgb(0,0,0); stroke-width: 3; stroke-dasharray: 1 10; stroke-linecap: round; stroke-dashoffset: 0; stroke-linejoin: miter; stroke-miterlimit: 4; fill: rgb(0,0,0); fill-rule: nonzero; opacity: 1;"  x1="92" y1="-1" x2="-92" y2="1" />
</g>
<g transform="matrix(1 0 0 1 378 326.5)"  >
<line style="stroke: rgb(0,0,0); stroke-width: 3; stroke-dasharray: 1 10; stroke-linecap: round; stroke-dashoffset: 0; stroke-linejoin: miter; stroke-miterlimit: 4; fill: rgb(0,0,0); fill-rule: nonzero; opacity: 1;"  x1="-0.5" y1="172" x2="0.5" y2="-172" />
</g>
<g transform="matrix(1 0 0 1 249.5 154.5)"  >
<line style="stroke: rgb(0,0,0); stroke-width: 3; stroke-dasharray: 1 10; stroke-linecap: round; stroke-dashoffset: 0; stroke-linejoin: miter; stroke-miterlimit: 4; fill: rgb(0,0,0); fill-rule: nonzero; opacity: 1;"  x1="130" y1="0" x2="-130" y2="0" />
</g>
<g transform="matrix(1 0 0 1 453 308.5)"  >
<line style="stroke: rgb(0,0,0); stroke-width: 3; stroke-dasharray: 1 10; stroke-linecap: round; stroke-dashoffset: 0; stroke-linejoin: miter; stroke-miterlimit: 4; fill: rgb(0,0,0); fill-rule: nonzero; opacity: 1;"  x1="-0.5" y1="191" x2="0.5" y2="-191" />
</g>
<g transform="matrix(1 0 0 1 287.5 119)"  >
<line style="stroke: rgb(0,0,0); stroke-width: 3; stroke-dasharray: 1 10; stroke-linecap: round; stroke-dashoffset: 0; stroke-linejoin: miter; stroke-miterlimit: 4; fill: rgb(0,0,0); fill-rule: nonzero; opacity: 1;"  x1="168" y1="-1.5" x2="-168" y2="1.5" />
</g>
</svg>