<svg xmlns="http://www.w3.org/2000/svg" xmlns:xlink="http://www.w3.org/1999/xlink" width="800" height="550" version="1.1" viewBox="0 0 800 550" xml:space="preserve"><desc>Created with Fabric.js 3.6.3</desc><g transform="matrix(0.87 0 0 0.87 118.18 281.68)"><line style="stroke:#000;stroke-width:2;stroke-dasharray:none;stroke-linecap:butt;stroke-dashoffset:0;stroke-linejoin:miter;stroke-miterlimit:4;fill:#000;fill-rule:nonzero;opacity:1" x1="-.5" x2=".5" y1="-250.5" y2="250.5"/></g><g transform="matrix(0.87 0 0 0.87 429.63 497.96)"><line style="stroke:#000;stroke-width:2;stroke-dasharray:none;stroke-linecap:butt;stroke-dashoffset:0;stroke-linejoin:miter;stroke-miterlimit:4;fill:#000;fill-rule:nonzero;opacity:1" x1="-358.5" x2="358.5" y1="0" y2="0"/></g><g><text font-family="'Open Sans', sans-serif" font-size="18" font-style="normal" font-weight="normal" transform="matrix(1 0 0 1 410.5 526.67)" xml:space="preserve" style="stroke:none;stroke-width:1;stroke-dasharray:none;stroke-linecap:butt;stroke-dashoffset:0;stroke-linejoin:miter;stroke-miterlimit:4;fill:#000;fill-rule:nonzero;opacity:1;white-space:pre"><tspan x="-89" y="5.65">frequency (in Hertz)</tspan></text></g><g><text font-family="'Open Sans', sans-serif" font-size="18" font-style="normal" font-weight="normal" transform="matrix(0 -1 1 0 86.01 251.67)" xml:space="preserve" style="stroke:none;stroke-width:1;stroke-dasharray:none;stroke-linecap:butt;stroke-dashoffset:0;stroke-linejoin:miter;stroke-miterlimit:4;fill:#000;fill-rule:nonzero;opacity:1;white-space:pre"><tspan x="-67.5" y="5.65">pitch (in cents)</tspan></text></g><g><path style="stroke:#000;stroke-width:2;stroke-dasharray:none;stroke-linecap:butt;stroke-dashoffset:0;stroke-linejoin:miter;stroke-miterlimit:4;fill:none;fill-rule:nonzero;opacity:1" stroke-linecap="round" d="M 119 499 Q 226 90 729 65" transform="matrix(1 0 0 1 424 279) translate(-424, -282)"/></g><g transform="matrix(1 0 0 1 153.5 454)"><line style="stroke:#000;stroke-width:3;stroke-dasharray:1 10;stroke-linecap:round;stroke-dashoffset:0;stroke-linejoin:miter;stroke-miterlimit:4;fill:#000;fill-rule:nonzero;opacity:1" x1="0" x2="0" y1="-45.5" y2="45.5"/></g><g transform="matrix(1 0 0 1 136.5 409.5)"><line style="stroke:#000;stroke-width:3;stroke-dasharray:1 10;stroke-linecap:round;stroke-dashoffset:0;stroke-linejoin:miter;stroke-miterlimit:4;fill:#000;fill-rule:nonzero;opacity:1" x1="-18" x2="18" y1="0" y2="0"/></g><g transform="matrix(1 0 0 1 225.5 392.5)"><line style="stroke:#000;stroke-width:3;stroke-dasharray:1 10;stroke-linecap:round;stroke-dashoffset:0;stroke-linejoin:miter;stroke-miterlimit:4;fill:#000;fill-rule:nonzero;opacity:1" x1="-1" x2="1" y1="-108" y2="108"/></g><g transform="matrix(1 0 0 1 173 286.5)"><line style="stroke:#000;stroke-width:3;stroke-dasharray:1 10;stroke-linecap:round;stroke-dashoffset:0;stroke-linejoin:miter;stroke-miterlimit:4;fill:#000;fill-rule:nonzero;opacity:1" x1="-52.5" x2="52.5" y1="1" y2="-1"/></g><g transform="matrix(1 0 0 1 302.5 352)"><line style="stroke:#000;stroke-width:3;stroke-dasharray:1 10;stroke-linecap:round;stroke-dashoffset:0;stroke-linejoin:miter;stroke-miterlimit:4;fill:#000;fill-rule:nonzero;opacity:1" x1="0" x2="0" y1="148.5" y2="-148.5"/></g><g transform="matrix(1 0 0 1 211.5 204.5)"><line style="stroke:#000;stroke-width:3;stroke-dasharray:1 10;stroke-linecap:round;stroke-dashoffset:0;stroke-linejoin:miter;stroke-miterlimit:4;fill:#000;fill-rule:nonzero;opacity:1" x1="92" x2="-92" y1="-1" y2="1"/></g><g transform="matrix(1 0 0 1 378 326.5)"><line style="stroke:#000;stroke-width:3;stroke-dasharray:1 10;stroke-linecap:round;stroke-dashoffset:0;stroke-linejoin:miter;stroke-miterlimit:4;fill:#000;fill-rule:nonzero;opacity:1" x1="-.5" x2=".5" y1="172" y2="-172"/></g><g transform="matrix(1 0 0 1 249.5 154.5)"><line style="stroke:#000;stroke-width:3;stroke-dasharray:1 10;stroke-linecap:round;stroke-dashoffset:0;stroke-linejoin:miter;stroke-miterlimit:4;fill:#000;fill-rule:nonzero;opacity:1" x1="130" x2="-130" y1="0" y2="0"/></g><g transform="matrix(1 0 0 1 453 308.5)"><line style="stroke:#000;stroke-width:3;stroke-dasharray:1 10;stroke-linecap:round;stroke-dashoffset:0;stroke-linejoin:miter;stroke-miterlimit:4;fill:#000;fill-rule:nonzero;opacity:1" x1="-.5" x2=".5" y1="191" y2="-191"/></g><g transform="matrix(1 0 0 1 287.5 119)"><line style="stroke:#000;stroke-width:3;stroke-dasharray:1 10;stroke-linecap:round;stroke-dashoffset:0;stroke-linejoin:miter;stroke-miterlimit:4;fill:#000;fill-rule:nonzero;opacity:1" x1="168" x2="-168" y1="-1.5" y2="1.5"/></g></svg>