<svg xmlns="http://www.w3.org/2000/svg" xmlns:xlink="http://www.w3.org/1999/xlink" width="627" height="358" version="1.1" viewBox="0 0 627 358" xml:space="preserve"><desc>Created with Fabric.js 3.6.3</desc><g transform="matrix(1 0 0 1 -278 -272)"><line style="stroke:#000;stroke-width:2;stroke-dasharray:none;stroke-linecap:butt;stroke-dashoffset:0;stroke-linejoin:miter;stroke-miterlimit:4;fill:#000;fill-rule:nonzero;opacity:1" x1="0" x2="0" y1="0" y2="0"/></g><g><text font-family="'Open Sans', sans-serif" font-size="18" font-style="normal" font-weight="normal" transform="matrix(1 0 0 1 503 38.26)" xml:space="preserve" style="stroke:none;stroke-width:1;stroke-dasharray:none;stroke-linecap:butt;stroke-dashoffset:0;stroke-linejoin:miter;stroke-miterlimit:4;fill:#000;fill-rule:nonzero;opacity:1;white-space:pre"><tspan x="-65" y="-17.94">fundamental</tspan><tspan x="-65" y="5.65">1st harmonic</tspan><tspan x="-65" y="29.25">440 Hertz</tspan></text></g><g><text font-family="'Open Sans', sans-serif" font-size="18" font-style="normal" font-weight="normal" transform="matrix(1 0 0 1 523.25 128.47)" xml:space="preserve" style="stroke:none;stroke-width:1;stroke-dasharray:none;stroke-linecap:butt;stroke-dashoffset:0;stroke-linejoin:miter;stroke-miterlimit:4;fill:#000;fill-rule:nonzero;opacity:1;white-space:pre"><tspan x="-85.75" y="-6.14">2nd harmonic</tspan><tspan x="-85.75" y="17.45" style="white-space:pre">440 * </tspan><tspan x="-35.61" y="17.45" style="font-weight:700">2</tspan><tspan x="-25.31" y="17.45" style="white-space:pre"> = 880 Hertz</tspan></text></g><g><text font-family="'Open Sans', sans-serif" font-size="18" font-style="normal" font-weight="normal" transform="matrix(1 0 0 1 534.24 222.47)" xml:space="preserve" style="stroke:none;stroke-width:1;stroke-dasharray:none;stroke-linecap:butt;stroke-dashoffset:0;stroke-linejoin:miter;stroke-miterlimit:4;fill:#000;fill-rule:nonzero;opacity:1;white-space:pre"><tspan x="-98.74" y="-6.14">3rd harmonic</tspan><tspan x="-98.74" y="17.45" style="white-space:pre">440 * </tspan><tspan x="-48.6" y="17.45" style="font-weight:700">3</tspan><tspan x="-38.31" y="17.45" style="white-space:pre"> = 1320 Hertz</tspan></text></g><g><text font-family="'Open Sans', sans-serif" font-size="18" font-style="normal" font-weight="normal" transform="matrix(1 0 0 1 523.75 315.47)" xml:space="preserve" style="stroke:none;stroke-width:1;stroke-dasharray:none;stroke-linecap:butt;stroke-dashoffset:0;stroke-linejoin:miter;stroke-miterlimit:4;fill:#000;fill-rule:nonzero;opacity:1;white-space:pre"><tspan x="-89.25" y="-6.14">4th harmonic</tspan><tspan x="-89.25" y="17.45">440 *</tspan><tspan x="-43.79" y="17.45" style="font-weight:700;white-space:pre"> 4 </tspan><tspan x="-24.14" y="17.45">= 1760 Hertz</tspan></text></g><g><path style="stroke:#000;stroke-opacity:0;stroke-width:1;stroke-dasharray:none;stroke-linecap:round;stroke-dashoffset:0;stroke-linejoin:round;stroke-miterlimit:10;fill:none;fill-rule:nonzero;opacity:1" stroke-linecap="round" d="M 470.499 329 L 470.501 329" transform="matrix(1 0 0 1 470.5 329) translate(-470.5, -329)"/></g><g id="rect3311" transform="matrix(0.57 0 0 0.56 182.12 35.72)"><rect style="stroke:#000;stroke-width:1.25;stroke-dasharray:none;stroke-linecap:round;stroke-dashoffset:0;stroke-linejoin:round;stroke-miterlimit:4;fill:none;fill-rule:evenodd;opacity:1" width="624.429" height="124.429" x="-312.215" y="-62.215" rx="0" ry="0"/></g><g id="path3321"><path style="stroke:red;stroke-width:2.5;stroke-dasharray:none;stroke-linecap:round;stroke-dashoffset:0;stroke-linejoin:round;stroke-miterlimit:4;fill:none;fill-rule:evenodd;opacity:1" stroke-linecap="round" d="M 91.83258 130.65632 C 161.21361 108.93931 230.59465 87.645198 299.97569 76.776847 C 369.35672 65.908496 438.73776 65.928191 508.11879 76.776847 C 577.49983 87.625503 646.88086 108.93931 716.2619 130.65632" transform="matrix(0.57 0 0 0.56 182.12 18.35) translate(-404.05, -99.64)"/></g><g id="rect3205" transform="matrix(0.57 0 0 0.56 182.12 131.32)"><rect style="stroke:#000;stroke-width:1.25;stroke-dasharray:none;stroke-linecap:round;stroke-dashoffset:0;stroke-linejoin:round;stroke-miterlimit:4;fill:none;fill-rule:evenodd;opacity:1" width="624.429" height="124.429" x="-312.215" y="-62.215" rx="0" ry="0"/></g><g id="path3304"><path style="stroke:red;stroke-width:2.5;stroke-dasharray:none;stroke-linecap:round;stroke-dashoffset:0;stroke-linejoin:round;stroke-miterlimit:4;fill:none;fill-rule:evenodd;opacity:1" stroke-linecap="round" d="M 91.832581 301.37216 C 121.56731 282.75758 151.30204 264.34331 181.03677 252.73078 C 210.7715 241.11825 240.50623 236.58337 270.24096 240.71735 C 299.97569 244.85134 329.71041 257.6107 359.44514 274.37823 C 389.17987 291.14576 418.9146 311.5913 448.64933 328.36609 C 478.38406 345.14087 508.11879 357.87668 537.85352 362.02696 C 567.58825 366.17724 597.32298 361.613 627.05771 350.01353 C 656.79244 338.41407 686.52717 319.98674 716.2619 301.37216" transform="matrix(0.57 0 0 0.56 182.12 131.32) translate(-404.05, -301.37)"/></g><g id="rect3402" transform="matrix(0.57 0 0 0.56 182.12 226.92)"><rect style="stroke:#000;stroke-width:1.25;stroke-dasharray:none;stroke-linecap:round;stroke-dashoffset:0;stroke-linejoin:round;stroke-miterlimit:4;fill:none;fill-rule:evenodd;opacity:1" width="624.429" height="124.429" x="-312.215" y="-62.215" rx="0" ry="0"/></g><g id="path3417"><path style="stroke:red;stroke-width:2.5;stroke-dasharray:none;stroke-linecap:round;stroke-dashoffset:0;stroke-linejoin:round;stroke-miterlimit:4;fill:none;fill-rule:evenodd;opacity:1" stroke-linecap="round" d="M 91.83258 472.08795 C 110.75468 454.31948 129.67678 436.71087 148.59888 425.06925 C 167.52098 413.42763 186.44308 407.98536 205.36518 410.50655 C 224.28728 413.02773 243.20938 423.5085 262.13148 438.45216 C 281.05358 453.39583 299.97568 472.56498 318.89779 489.61584 C 337.81989 506.6667 356.74199 521.29218 375.66409 528.68039 C 394.58619 536.0686 413.50829 536.05475 432.43039 528.68039 C 451.35249 521.30602 470.27459 506.66241 489.19669 489.61584 C 508.11879 472.56927 527.04089 453.40406 545.96299 438.45216 C 564.88509 423.50027 583.80719 413.0428 602.72929 410.50655 C 621.65139 407.9703 640.5735 413.43913 659.4956 425.06925 C 678.4177 436.69936 697.3398 454.31948 716.2619 472.08795" transform="matrix(0.57 0 0 0.56 182.12 226.9) translate(-404.05, -472.06)"/></g><g id="rect3433" transform="matrix(0.57 0 0 0.56 182.12 322.52)"><rect style="stroke:#000;stroke-width:1.25;stroke-dasharray:none;stroke-linecap:round;stroke-dashoffset:0;stroke-linejoin:round;stroke-miterlimit:4;fill:none;fill-rule:evenodd;opacity:1" width="624.429" height="124.429" x="-312.215" y="-62.215" rx="0" ry="0"/></g><g id="path3469"><path style="stroke:red;stroke-width:2.5;stroke-dasharray:none;stroke-linecap:round;stroke-dashoffset:0;stroke-linejoin:round;stroke-miterlimit:4;fill:none;fill-rule:evenodd;opacity:1" stroke-linecap="round" d="M 91.83258 642.8037 C 105.70879 625.4301 119.58499 608.19983 133.4612 596.56921 C 147.33741 584.93859 161.21361 579.12107 175.08982 580.92987 C 188.96603 582.73867 202.84223 592.18358 216.71844 606.23485 C 230.59465 620.28611 244.47086 638.74339 258.34706 655.73886 C 272.22327 672.73432 286.09948 687.99007 299.97568 696.68318 C 313.85189 705.37628 327.7281 707.33518 341.60431 701.97336 C 355.48051 696.61154 369.35672 683.9773 383.23293 668.10868 C 397.10913 652.24007 410.98534 633.37326 424.86155 617.49873 C 438.73776 601.62419 452.61396 589.00971 466.49017 583.63405 C 480.36638 578.25839 494.24258 580.24373 508.11879 588.92423 C 521.995 597.60473 535.87121 612.87611 549.74741 629.86855 C 563.62362 646.86099 577.49983 665.31274 591.37603 679.37256 C 605.25224 693.43238 619.12845 702.85427 633.00466 704.67754 C 646.88086 706.50082 660.75707 700.65801 674.63328 689.0382 C 688.50948 677.4184 702.38569 660.17731 716.2619 642.8037" transform="matrix(0.57 0 0 0.56 182.12 322.52) translate(-404.05, -642.81)"/></g><g id="rect3614" transform="matrix(0.28 0 0 0.56 362.22 226.73)"><rect style="stroke:none;stroke-width:1.25;stroke-dasharray:none;stroke-linecap:round;stroke-dashoffset:0;stroke-linejoin:round;stroke-miterlimit:4;fill:#000;fill-rule:evenodd;opacity:1" width="12.5" height="125" x="-6.25" y="-62.5" rx="0" ry="0"/></g><g id="rect3620" transform="matrix(0.28 0 0 0.56 362.22 131.13)"><rect style="stroke:none;stroke-width:1.25;stroke-dasharray:none;stroke-linecap:round;stroke-dashoffset:0;stroke-linejoin:round;stroke-miterlimit:4;fill:#000;fill-rule:evenodd;opacity:1" width="12.5" height="125" x="-6.25" y="-62.5" rx="0" ry="0"/></g><g id="rect3624" transform="matrix(0.28 0 0 0.56 362.22 35.53)"><rect style="stroke:none;stroke-width:1.25;stroke-dasharray:none;stroke-linecap:round;stroke-dashoffset:0;stroke-linejoin:round;stroke-miterlimit:4;fill:#000;fill-rule:evenodd;opacity:1" width="12.5" height="125" x="-6.25" y="-62.5" rx="0" ry="0"/></g><g id="rect3628" transform="matrix(0.28 0 0 0.56 362.22 322.33)"><rect style="stroke:none;stroke-width:1.25;stroke-dasharray:none;stroke-linecap:round;stroke-dashoffset:0;stroke-linejoin:round;stroke-miterlimit:4;fill:#000;fill-rule:evenodd;opacity:1" width="12.5" height="125" x="-6.25" y="-62.5" rx="0" ry="0"/></g><g id="rect3636" transform="matrix(0.28 0 0 0.56 2.02 226.73)"><rect style="stroke:none;stroke-width:1.25;stroke-dasharray:none;stroke-linecap:round;stroke-dashoffset:0;stroke-linejoin:round;stroke-miterlimit:4;fill:#000;fill-rule:evenodd;opacity:1" width="12.5" height="125" x="-6.25" y="-62.5" rx="0" ry="0"/></g><g id="rect3638" transform="matrix(0.28 0 0 0.56 2.02 131.13)"><rect style="stroke:none;stroke-width:1.25;stroke-dasharray:none;stroke-linecap:round;stroke-dashoffset:0;stroke-linejoin:round;stroke-miterlimit:4;fill:#000;fill-rule:evenodd;opacity:1" width="12.5" height="125" x="-6.25" y="-62.5" rx="0" ry="0"/></g><g id="rect3642" transform="matrix(0.28 0 0 0.56 2.02 35.53)"><rect style="stroke:none;stroke-width:1.25;stroke-dasharray:none;stroke-linecap:round;stroke-dashoffset:0;stroke-linejoin:round;stroke-miterlimit:4;fill:#000;fill-rule:evenodd;opacity:1" width="12.5" height="125" x="-6.25" y="-62.5" rx="0" ry="0"/></g><g id="rect3646" transform="matrix(0.28 0 0 0.56 2.02 322.33)"><rect style="stroke:none;stroke-width:1.25;stroke-dasharray:none;stroke-linecap:round;stroke-dashoffset:0;stroke-linejoin:round;stroke-miterlimit:4;fill:#000;fill-rule:evenodd;opacity:1" width="12.5" height="125" x="-6.25" y="-62.5" rx="0" ry="0"/></g><g id="text3664"><text font-family="serif" font-size="40" font-style="normal" font-weight="normal" transform="matrix(0.57 0 0 0.56 404.28 36.27)" xml:space="preserve" style="stroke:none;stroke-width:1;stroke-dasharray:none;stroke-linecap:butt;stroke-dashoffset:0;stroke-linejoin:miter;stroke-miterlimit:4;fill:#000;fill-rule:nonzero;opacity:1;white-space:pre"><tspan x="-12.73" y="12.57">1</tspan></text></g><g id="path3676"><path style="stroke:#000;stroke-width:2.5;stroke-dasharray:none;stroke-linecap:round;stroke-dashoffset:0;stroke-linejoin:round;stroke-miterlimit:4;fill:none;fill-rule:evenodd;opacity:1" stroke-linecap="round" d="M 890.95452 138.17413 A 29.294424 29.294424 0 1 1 832.36567 138.17413 A 29.294424 29.294424 0 1 1 890.95452 138.17413 z" transform="matrix(0.57 0 0 0.56 402.67 35.72) translate(-861.66, -138.17)"/></g><g id="text3678"><text font-family="serif" font-size="40" font-style="normal" font-weight="normal" transform="matrix(0.57 0 0 0.56 404.45 131.87)" xml:space="preserve" style="stroke:none;stroke-width:1;stroke-dasharray:none;stroke-linecap:butt;stroke-dashoffset:0;stroke-linejoin:miter;stroke-miterlimit:4;fill:#000;fill-rule:nonzero;opacity:1;white-space:pre"><tspan x="-12.73" y="12.57">2</tspan></text></g><g id="path3682"><path style="stroke:#000;stroke-width:2.5;stroke-dasharray:none;stroke-linecap:round;stroke-dashoffset:0;stroke-linejoin:round;stroke-miterlimit:4;fill:none;fill-rule:evenodd;opacity:1" stroke-linecap="round" d="M 890.95452 138.17413 A 29.294424 29.294424 0 1 1 832.36567 138.17413 A 29.294424 29.294424 0 1 1 890.95452 138.17413 z" transform="matrix(0.57 0 0 0.56 402.67 131.32) translate(-861.66, -138.17)"/></g><g id="text3688"><text font-family="serif" font-size="40" font-style="normal" font-weight="normal" transform="matrix(0.57 0 0 0.56 404.7 227.34)" xml:space="preserve" style="stroke:none;stroke-width:1;stroke-dasharray:none;stroke-linecap:butt;stroke-dashoffset:0;stroke-linejoin:miter;stroke-miterlimit:4;fill:#000;fill-rule:nonzero;opacity:1;white-space:pre"><tspan x="-12.73" y="12.57">3</tspan></text></g><g id="path3709"><path style="stroke:#000;stroke-width:2.5;stroke-dasharray:none;stroke-linecap:round;stroke-dashoffset:0;stroke-linejoin:round;stroke-miterlimit:4;fill:none;fill-rule:evenodd;opacity:1" stroke-linecap="round" d="M 890.95452 138.17413 A 29.294424 29.294424 0 1 1 832.36567 138.17413 A 29.294424 29.294424 0 1 1 890.95452 138.17413 z" transform="matrix(0.57 0 0 0.56 402.67 226.92) translate(-861.66, -138.17)"/></g><g id="text3692"><text font-family="serif" font-size="40" font-style="normal" font-weight="normal" transform="matrix(0.57 0 0 0.56 404.44 323.07)" xml:space="preserve" style="stroke:none;stroke-width:1;stroke-dasharray:none;stroke-linecap:butt;stroke-dashoffset:0;stroke-linejoin:miter;stroke-miterlimit:4;fill:#000;fill-rule:nonzero;opacity:1;white-space:pre"><tspan x="-12.73" y="12.57">4</tspan></text></g><g id="path3727"><path style="stroke:#000;stroke-width:2.5;stroke-dasharray:none;stroke-linecap:round;stroke-dashoffset:0;stroke-linejoin:round;stroke-miterlimit:4;fill:none;fill-rule:evenodd;opacity:1" stroke-linecap="round" d="M 890.95452 138.17413 A 29.294424 29.294424 0 1 1 832.36567 138.17413 A 29.294424 29.294424 0 1 1 890.95452 138.17413 z" transform="matrix(0.57 0 0 0.56 402.67 322.52) translate(-861.66, -138.17)"/></g></svg>